# File created by Blade
# Date/Time:  Mon Nov 18 18:33:23 2013
# Frame Rate: 100.000 fps
#------------------------------------------------------
:FULLY-SPECIFIED
:DEGREES
57
root 52.085982 0.279458 51.892304 -4.896775 3.145647 -127.513585
Spine 6.544645 -0.165571 -0.951445
Spine1 2.039824 1.748172 -1.974285
Spine2 0.845503 -1.925519 -2.245189
NeckDummy 0.003610 -0.092843 -0.019786 -0.481087 1.858226 -0.616901
Neck 21.131944 0.910161 28.189858
Head -0.343471 0.374709 0.168587 -33.709974 -4.568099 -0.957092
LeftShoulderDummy -0.054915 -0.091348 -0.011909 -0.450490 1.733256 -0.451218
LeftShoulder 10.352163 -4.539409 17.550305
LeftArm 5.132682 43.918276 16.866151
LeftForeArm 90.846075
LeftForeArmRoll -30.194467
LeftHand -9.271181 5.383402 -2.349932
LeftHandThumb1 15.854822 13.568890
LeftHandIndex1 16.700692 42.660048
LeftHandPinky1 14.164495 46.736626
RightShoulderDummy -0.025258 -0.070465 0.038836 -0.495111 -1.884657 0.675776
RightShoulder 8.092239 3.587041 20.741605
RightArm -53.786287 58.119447 -9.899881
RightForeArm 113.141465
RightForeArmRoll 3.625875
RightHand -17.418743 -14.251669 11.710407
RightHandThumb1 -0.911908 14.449564
RightHandIndex1 14.417703 61.625915
RightHandPinky1 18.868303 69.256301
LeftUpLeg 14.476510 12.081179 -8.094551
LeftLeg 28.565401
LeftFoot 0.351977 -0.510224 -0.319334 -12.053768 11.135219 -7.725212
LeftToeBase -2.650928
RightUpLeg 15.574050 12.757196 -6.120902
RightLeg 33.408225
RightFoot -0.381672 0.190187 0.090055 -3.563412 2.196892 -21.686262
RightToeBase -0.966781
58
root 52.169619 0.276574 51.816169 -4.812780 3.130649 -127.324851
Spine 6.520482 -0.179898 -0.949326
Spine1 2.039703 1.746042 -1.986247
Spine2 0.835712 -1.910602 -2.284594
NeckDummy 0.003596 -0.092201 -0.019468 -0.466500 1.885306 -0.612595
Neck 21.082782 0.780350 28.162518
Head -0.341560 0.369803 0.165964 -33.618900 -4.605009 -0.906059
LeftShoulderDummy -0.054128 -0.090560 -0.012650 -0.435808 1.760965 -0.449813
LeftShoulder 10.380576 -4.587825 17.493955
LeftArm 5.384713 43.815092 17.097109
LeftForeArm 90.769883
LeftForeArmRoll -30.296254
LeftHand -9.229857 5.325666 -2.246756
LeftHandThumb1 15.949131 13.594837
LeftHandIndex1 16.503028 42.895013
LeftHandPinky1 14.186968 46.910817
RightShoulderDummy -0.025213 -0.069939 0.038483 -0.481909 -1.909496 0.670903
RightShoulder 7.998756 3.655686 20.734932
RightArm -53.953013 58.330100 -10.239533
RightForeArm 113.037998
RightForeArmRoll 3.655571
RightHand -17.471935 -14.172695 11.713086
RightHandThumb1 -0.781666 14.305209
RightHandIndex1 13.467391 61.595439
RightHandPinky1 18.663878 69.041348
LeftUpLeg 14.203845 12.240666 -8.402360
LeftLeg 28.734342
LeftFoot 0.374749 -0.520813 -0.318729 -12.636063 11.263614 -7.715334
LeftToeBase -1.957801
RightUpLeg 15.446448 12.521915 -6.199004
RightLeg 33.400356
RightFoot -0.368772 0.177971 0.090231 -3.520298 2.529836 -21.640014
RightToeBase -0.975285
59
root 52.259855 0.274920 51.739976 -4.778648 3.067469 -127.170189
Spine 6.569156 -0.127787 -0.953281
Spine1 2.045318 1.760275 -1.988563
Spine2 0.836608 -1.948797 -2.283049
NeckDummy 0.003537 -0.092582 -0.019457 -0.476480 1.887762 -0.619987
Neck 21.012851 0.672409 28.139380
Head -0.344752 0.365618 0.165099 -33.552058 -4.641522 -0.934370
LeftShoulderDummy -0.055201 -0.091251 -0.012737 -0.446758 1.763912 -0.454869
LeftShoulder 10.358308 -4.615861 17.465553
LeftArm 5.523802 43.680017 17.298704
LeftForeArm 90.714356
LeftForeArmRoll -30.420999
LeftHand -9.209104 5.443876 -2.212175
LeftHandThumb1 15.810317 13.374169
LeftHandIndex1 16.442263 42.614139
LeftHandPinky1 14.787271 46.673135
RightShoulderDummy -0.026146 -0.070102 0.039141 -0.491539 -1.911971 0.675905
RightShoulder 8.006276 3.683769 20.661934
RightArm -53.964279 58.587107 -10.527332
RightForeArm 112.906152
RightForeArmRoll 3.526701
RightHand -17.539386 -14.165043 11.684375
RightHandThumb1 -0.840730 14.324217
RightHandIndex1 14.000002 61.430987
RightHandPinky1 18.832107 68.993108
LeftUpLeg 14.032696 12.486241 -8.703445
LeftLeg 28.960085
LeftFoot 0.373657 -0.553584 -0.343342 -12.304864 10.965789 -7.466499
LeftToeBase -2.449396
RightUpLeg 15.402927 12.257223 -6.244452
RightLeg 33.429380
RightFoot -0.360251 0.176463 0.084939 -3.438698 2.741367 -21.671111
RightToeBase -0.962950
60
root 52.343300 0.270184 51.663249 -4.733914 3.076161 -126.994605
Spine 6.550747 -0.131436 -0.954012
Spine1 2.055772 1.753377 -2.004813
Spine2 0.897880 -1.975934 -2.311240
NeckDummy 0.003735 -0.090985 -0.021505 -0.480512 1.910649 -0.628588
Neck 20.953519 0.543962 28.116584
Head -0.347718 0.362248 0.165677 -33.530107 -4.681686 -0.972641
LeftShoulderDummy -0.054731 -0.089719 -0.015255 -0.451193 1.788207 -0.466558
LeftShoulder 10.299034 -4.662616 17.391160
LeftArm 5.654896 43.519416 17.477469
LeftForeArm 90.601810
LeftForeArmRoll -30.545896
LeftHand -9.175458 5.244096 -2.072865
LeftHandThumb1 15.794300 13.475071
LeftHandIndex1 16.404323 42.840693
LeftHandPinky1 14.009871 46.987246
RightShoulderDummy -0.026501 -0.068237 0.037818 -0.495459 -1.934931 0.683599
RightShoulder 7.962195 3.715753 20.581191
RightArm -54.010666 58.837466 -10.798020
RightForeArm 112.826051
RightForeArmRoll 3.567410
RightHand -17.475346 -14.132687 11.621422
RightHandThumb1 -0.679732 14.126999
RightHandIndex1 13.792651 61.545767
RightHandPinky1 18.545867 68.935045
LeftUpLeg 13.789006 12.639324 -9.024923
LeftLeg 29.222115
LeftFoot 0.383784 -0.568114 -0.328483 -12.546156 11.159434 -7.419686
LeftToeBase -2.130259
RightUpLeg 15.437021 12.109391 -6.303975
RightLeg 33.488887
RightFoot -0.349527 0.166199 0.083682 -3.409924 2.902119 -21.641890
RightToeBase -0.968800
61
root 52.435333 0.264663 51.592252 -4.721572 3.060035 -126.783377
Spine 6.655375 -0.103018 -0.966000
Spine1 2.060210 1.756460 -2.027361
Spine2 0.863739 -1.992230 -2.276393
NeckDummy 0.003475 -0.090485 -0.020525 -0.511100 1.886223 -0.629323
Neck 20.948219 0.386442 28.079660
Head -0.348386 0.358095 0.166002 -33.523151 -4.679047 -0.959502
LeftShoulderDummy -0.054206 -0.089090 -0.012901 -0.482542 1.765589 -0.470808
LeftShoulder 10.177380 -4.697851 17.241660
LeftArm 5.666012 43.439060 17.494629
LeftForeArm 90.546870
LeftForeArmRoll -30.468700
LeftHand -9.203365 5.342230 -2.087734
LeftHandThumb1 15.850686 13.413995
LeftHandIndex1 16.402672 42.769139
LeftHandPinky1 14.028858 46.878913
RightShoulderDummy -0.026987 -0.067598 0.039544 -0.525998 -1.910242 0.683293
RightShoulder 7.929070 3.795836 20.577393
RightArm -54.123679 59.080489 -11.125492
RightForeArm 112.754198
RightForeArmRoll 3.737336
RightHand -17.450484 -13.904758 11.737489
RightHandThumb1 -0.164809 13.840397
RightHandIndex1 13.080070 61.516064
RightHandPinky1 18.261465 68.805193
LeftUpLeg 13.394591 12.796175 -9.411694
LeftLeg 29.587118
LeftFoot 0.368167 -0.603233 -0.357919 -12.163414 10.927269 -7.259626
LeftToeBase -2.462667
RightUpLeg 15.326763 11.906172 -6.368482
RightLeg 33.592151
RightFoot -0.334719 0.165827 0.078304 -3.428085 3.220728 -21.688299
RightToeBase -1.007745
62
root 52.519946 0.256009 51.521182 -4.729640 3.080210 -126.579219
Spine 6.728284 -0.096725 -0.961703
Spine1 2.081619 1.749441 -2.025688
Spine2 0.884908 -2.031584 -2.354925
NeckDummy 0.003794 -0.089640 -0.021341 -0.523732 1.946721 -0.645210
Neck 20.870103 0.275796 28.025943
Head -0.349041 0.354177 0.167529 -33.503125 -4.726863 -0.942962
LeftShoulderDummy -0.054539 -0.088444 -0.014549 -0.495466 1.826534 -0.487098
LeftShoulder 10.104546 -4.714548 17.139915
LeftArm 5.781280 43.289083 17.691949
LeftForeArm 90.463508
LeftForeArmRoll -30.543935
LeftHand -9.241433 5.323756 -2.090711
LeftHandThumb1 15.749311 13.435920
LeftHandIndex1 16.426374 42.629985
LeftHandPinky1 14.192635 46.905344
RightShoulderDummy -0.028064 -0.066158 0.040226 -0.539293 -1.968995 0.695950
RightShoulder 7.829988 3.857335 20.475808
RightArm -54.367264 59.375243 -11.603766
RightForeArm 112.666163
RightForeArmRoll 3.662234
RightHand -17.487170 -13.933027 11.535503
RightHandThumb1 -0.638616 14.058552
RightHandIndex1 13.468261 61.570079
RightHandPinky1 18.503980 68.865683
LeftUpLeg 13.035480 12.922608 -9.788866
LeftLeg 30.007991
LeftFoot 0.383443 -0.632010 -0.341303 -12.238337 11.173476 -7.147188
LeftToeBase -2.655406
RightUpLeg 15.433178 11.793643 -6.401236
RightLeg 33.673052
RightFoot -0.329062 0.161947 0.085797 -3.411811 3.307868 -21.687173
RightToeBase -0.964448
63
root 52.614430 0.241537 51.452068 -4.681249 3.079680 -126.315378
Spine 6.792236 -0.075749 -0.982033
Spine1 2.083505 1.755093 -2.078570
Spine2 0.867787 -2.079126 -2.426777
NeckDummy 0.004102 -0.085107 -0.021012 -0.542623 2.004266 -0.663500
Neck 20.788624 0.166129 28.021018
Head -0.350522 0.349954 0.169520 -33.496431 -4.749720 -0.940327
LeftShoulderDummy -0.054835 -0.084140 -0.014835 -0.514864 1.885099 -0.506319
LeftShoulder 10.035849 -4.743507 17.051566
LeftArm 5.904494 43.106873 17.866999
LeftForeArm 90.396990
LeftForeArmRoll -30.437293
LeftHand -9.254270 5.349774 -2.182579
LeftHandThumb1 15.851142 13.524456
LeftHandIndex1 16.570418 42.637127
LeftHandPinky1 14.246286 46.787144
RightShoulderDummy -0.028897 -0.060971 0.042347 -0.558591 -2.025656 0.712515
RightShoulder 7.828333 3.887810 20.434285
RightArm -54.427190 59.644557 -11.883206
RightForeArm 112.604345
RightForeArmRoll 3.725877
RightHand -17.489257 -13.762210 11.498462
RightHandThumb1 -0.717867 13.963475
RightHandIndex1 13.485871 61.401728
RightHandPinky1 18.524746 68.774279
LeftUpLeg 12.568573 13.084871 -10.337083
LeftLeg 30.565304
LeftFoot 0.374614 -0.665743 -0.343508 -12.301002 11.142087 -7.110422
LeftToeBase -2.712026
RightUpLeg 15.523001 11.658364 -6.523162
RightLeg 33.826658
RightFoot -0.315292 0.155385 0.085724 -3.307567 3.459386 -21.743258
RightToeBase -0.875427
